<svg width="22" height="6" viewBox="0 0 22 6" fill="none" xmlns="http://www.w3.org/2000/svg">
<path d="M11 0.25C9.45312 0.25 8.25 1.45312 8.25 3C8.25 4.54688 9.45312 5.75 11 5.75C12.5469 5.75 13.75 4.54688 13.75 3C13.75 1.45312 12.5469 0.25 11 0.25ZM11 3.92813C10.45 3.92813 10.0719 3.55 10.0719 3C10.0719 2.45 10.45 2.07187 11 2.07187C11.55 2.07187 11.9281 2.45 11.9281 3C11.9281 3.55 11.55 3.92813 11 3.92813Z" fill="white"/>
<path d="M11 0.25C9.45312 0.25 8.25 1.45312 8.25 3C8.25 4.54688 9.45312 5.75 11 5.75C12.5469 5.75 13.75 4.54688 13.75 3C13.75 1.45312 12.5469 0.25 11 0.25ZM11 3.92813C10.45 3.92813 10.0719 3.55 10.0719 3C10.0719 2.45 10.45 2.07187 11 2.07187C11.55 2.07187 11.9281 2.45 11.9281 3C11.9281 3.55 11.55 3.92813 11 3.92813Z" fill="black" fill-opacity="0.28"/>
<path d="M19.25 0.25C17.7031 0.25 16.5 1.45312 16.5 3C16.5 4.54688 17.7031 5.75 19.25 5.75C20.7969 5.75 22 4.54688 22 3C22 1.45312 20.7969 0.25 19.25 0.25ZM19.25 3.92813C18.7 3.92813 18.3219 3.55 18.3219 3C18.3219 2.45 18.7 2.07187 19.25 2.07187C19.8 2.07187 20.1781 2.45 20.1781 3C20.1781 3.55 19.8 3.92813 19.25 3.92813Z" fill="white"/>
<path d="M19.25 0.25C17.7031 0.25 16.5 1.45312 16.5 3C16.5 4.54688 17.7031 5.75 19.25 5.75C20.7969 5.75 22 4.54688 22 3C22 1.45312 20.7969 0.25 19.25 0.25ZM19.25 3.92813C18.7 3.92813 18.3219 3.55 18.3219 3C18.3219 2.45 18.7 2.07187 19.25 2.07187C19.8 2.07187 20.1781 2.45 20.1781 3C20.1781 3.55 19.8 3.92813 19.25 3.92813Z" fill="black" fill-opacity="0.28"/>
<path d="M2.75 0.25C1.20312 0.25 0 1.45312 0 3C0 4.54688 1.20312 5.75 2.75 5.75C4.29688 5.75 5.5 4.54688 5.5 3C5.5 1.45312 4.29688 0.25 2.75 0.25ZM2.75 3.92813C2.2 3.92813 1.82188 3.55 1.82188 3C1.82188 2.45 2.2 2.07187 2.75 2.07187C3.3 2.07187 3.67812 2.45 3.67812 3C3.67812 3.55 3.3 3.92813 2.75 3.92813Z" fill="white"/>
<path d="M2.75 0.25C1.20312 0.25 0 1.45312 0 3C0 4.54688 1.20312 5.75 2.75 5.75C4.29688 5.75 5.5 4.54688 5.5 3C5.5 1.45312 4.29688 0.25 2.75 0.25ZM2.75 3.92813C2.2 3.92813 1.82188 3.55 1.82188 3C1.82188 2.45 2.2 2.07187 2.75 2.07187C3.3 2.07187 3.67812 2.45 3.67812 3C3.67812 3.55 3.3 3.92813 2.75 3.92813Z" fill="black" fill-opacity="0.28"/>
</svg>
