<svg width="10" height="10" viewBox="0 0 10 10" fill="none" xmlns="http://www.w3.org/2000/svg">
<path d="M8.82812 3.04687L5.625 0.25C5.25 -0.078125 4.70312 -0.078125 4.375 0.25L1.17187 3.04687C0.96875 3.25 0.84375 3.5 0.84375 3.79687V9.04688C0.84375 9.59375 1.26562 10 1.79687 10H3.21875C3.76562 10 4.17188 9.57812 4.17188 9.04688V7.20312C4.17188 7.125 4.21875 7.07812 4.29688 7.07812H5.71875C5.79687 7.07812 5.84375 7.125 5.84375 7.20312V9.03125C5.84375 9.57812 6.26562 9.98437 6.79687 9.98437H8.21875C8.76562 9.98437 9.17187 9.5625 9.17187 9.03125V3.79687C9.17187 3.5 9.04688 3.25 8.82812 3.04687Z" fill="#5CBBFF"/>
</svg>