<svg width="22" height="22" viewBox="0 0 22 22" fill="none" xmlns="http://www.w3.org/2000/svg">
<path d="M15.0832 6.20479H9.61954C9.13799 6.20479 8.74766 6.59507 8.74766 7.07667C8.74766 7.55822 9.13795 7.94855 9.61954 7.94855H15.0832C15.5651 7.94855 15.9551 7.55826 15.9551 7.07667C15.9551 6.59507 15.5648 6.20479 15.0832 6.20479Z" fill="white"/>
<path d="M15.0832 6.20479H9.61954C9.13799 6.20479 8.74766 6.59507 8.74766 7.07667C8.74766 7.55822 9.13795 7.94855 9.61954 7.94855H15.0832C15.5651 7.94855 15.9551 7.55826 15.9551 7.07667C15.9551 6.59507 15.5648 6.20479 15.0832 6.20479Z" fill="black" fill-opacity="0.28"/>
<path d="M17.1757 10.4187H9.61954C9.13799 10.4187 8.74766 10.809 8.74766 11.2906C8.74766 11.7722 9.13795 12.1625 9.61954 12.1625H17.1757C17.6572 12.1625 18.0476 11.7722 18.0476 11.2906C18.0476 10.809 17.6572 10.4187 17.1757 10.4187Z" fill="white"/>
<path d="M17.1757 10.4187H9.61954C9.13799 10.4187 8.74766 10.809 8.74766 11.2906C8.74766 11.7722 9.13795 12.1625 9.61954 12.1625H17.1757C17.6572 12.1625 18.0476 11.7722 18.0476 11.2906C18.0476 10.809 17.6572 10.4187 17.1757 10.4187Z" fill="black" fill-opacity="0.28"/>
<path d="M21.1281 0.741089H5.69615C5.2146 0.741089 4.82427 1.13137 4.82427 1.61297V9.83752H3.28402C1.47314 9.83752 0 11.311 0 13.1215V17.9749C0 19.7858 1.47314 21.2589 3.28402 21.2589C3.43221 21.2589 3.57814 21.249 3.72084 21.2299H18.1057C20.2528 21.2299 22 19.4829 22 17.3356V1.61297C22 1.13137 21.6097 0.741089 21.1281 0.741089ZM4.82432 17.9749C4.82432 18.7221 4.28927 19.3469 3.58222 19.4861H3.28406V19.5152C2.43457 19.5152 1.74376 18.824 1.74376 17.9749V13.1215C1.74376 12.2723 2.43487 11.5812 3.28406 11.5812H4.82436L4.82432 17.9749ZM20.2563 17.3355C20.2563 18.5012 19.2717 19.4861 18.1057 19.4861H6.19923C6.43491 19.0336 6.56803 18.5195 6.56803 17.9749V2.4848H20.2563V17.3355Z" fill="white"/>
<path d="M21.1281 0.741089H5.69615C5.2146 0.741089 4.82427 1.13137 4.82427 1.61297V9.83752H3.28402C1.47314 9.83752 0 11.311 0 13.1215V17.9749C0 19.7858 1.47314 21.2589 3.28402 21.2589C3.43221 21.2589 3.57814 21.249 3.72084 21.2299H18.1057C20.2528 21.2299 22 19.4829 22 17.3356V1.61297C22 1.13137 21.6097 0.741089 21.1281 0.741089ZM4.82432 17.9749C4.82432 18.7221 4.28927 19.3469 3.58222 19.4861H3.28406V19.5152C2.43457 19.5152 1.74376 18.824 1.74376 17.9749V13.1215C1.74376 12.2723 2.43487 11.5812 3.28406 11.5812H4.82436L4.82432 17.9749ZM20.2563 17.3355C20.2563 18.5012 19.2717 19.4861 18.1057 19.4861H6.19923C6.43491 19.0336 6.56803 18.5195 6.56803 17.9749V2.4848H20.2563V17.3355Z" fill="black" fill-opacity="0.28"/>
<path d="M15.0832 14.3715H9.61954C9.13799 14.3715 8.74766 14.7618 8.74766 15.2434C8.74766 15.7249 9.13795 16.1153 9.61954 16.1153H15.0832C15.5651 16.1153 15.9551 15.725 15.9551 15.2434C15.9551 14.7618 15.5648 14.3715 15.0832 14.3715Z" fill="white"/>
<path d="M15.0832 14.3715H9.61954C9.13799 14.3715 8.74766 14.7618 8.74766 15.2434C8.74766 15.7249 9.13795 16.1153 9.61954 16.1153H15.0832C15.5651 16.1153 15.9551 15.725 15.9551 15.2434C15.9551 14.7618 15.5648 14.3715 15.0832 14.3715Z" fill="black" fill-opacity="0.28"/>
</svg>