<svg width="22" height="22" viewBox="0 0 22 22" fill="none" xmlns="http://www.w3.org/2000/svg">
<path d="M19.25 0H2.75C1.23385 0 0 1.23385 0 2.75V19.25C0 20.7662 1.23385 22 2.75 22H19.25C20.7662 22 22 20.7662 22 19.25V2.75C22 1.23385 20.7662 0 19.25 0ZM20.1667 19.25C20.1667 19.756 19.7551 20.1667 19.25 20.1667H2.75C2.2449 20.1667 1.83335 19.756 1.83335 19.25V2.75C1.83335 2.2449 2.24495 1.83335 2.75 1.83335H19.25C19.7551 1.83335 20.1667 2.24495 20.1667 2.75V19.25Z" fill="white"/>
<path d="M19.25 0H2.75C1.23385 0 0 1.23385 0 2.75V19.25C0 20.7662 1.23385 22 2.75 22H19.25C20.7662 22 22 20.7662 22 19.25V2.75C22 1.23385 20.7662 0 19.25 0ZM20.1667 19.25C20.1667 19.756 19.7551 20.1667 19.25 20.1667H2.75C2.2449 20.1667 1.83335 19.756 1.83335 19.25V2.75C1.83335 2.2449 2.24495 1.83335 2.75 1.83335H19.25C19.7551 1.83335 20.1667 2.24495 20.1667 2.75V19.25Z" fill="black" fill-opacity="0.28"/>
<path d="M6.34336 5.15165C6.29751 5.0325 6.23336 4.94081 6.15086 4.84915C6.10501 4.8125 6.05921 4.77581 6.01336 4.73915C5.95836 4.7025 5.90336 4.675 5.84836 4.65665C5.79336 4.62915 5.73836 4.61081 5.68336 4.60165C5.50001 4.565 5.31671 4.58331 5.1517 4.65665C5.0417 4.7025 4.94086 4.76665 4.8492 4.84915C4.7667 4.94081 4.70255 5.0325 4.6567 5.15165C4.61086 5.26165 4.58335 5.38081 4.58335 5.5C4.58335 5.6192 4.61086 5.73835 4.6567 5.84835C4.70255 5.9675 4.7667 6.0592 4.8492 6.15085C5.02336 6.31585 5.26171 6.4167 5.50005 6.4167C5.55505 6.4167 5.61921 6.40755 5.6834 6.39835C5.7384 6.3892 5.7934 6.37085 5.8484 6.34335C5.9034 6.325 5.9584 6.2975 6.0134 6.26085C6.05925 6.2242 6.10506 6.1875 6.1509 6.15085C6.3159 5.9767 6.41675 5.73835 6.41675 5.5C6.41667 5.38085 6.38917 5.26165 6.34336 5.15165Z" fill="white"/>
<path d="M6.34336 5.15165C6.29751 5.0325 6.23336 4.94081 6.15086 4.84915C6.10501 4.8125 6.05921 4.77581 6.01336 4.73915C5.95836 4.7025 5.90336 4.675 5.84836 4.65665C5.79336 4.62915 5.73836 4.61081 5.68336 4.60165C5.50001 4.565 5.31671 4.58331 5.1517 4.65665C5.0417 4.7025 4.94086 4.76665 4.8492 4.84915C4.7667 4.94081 4.70255 5.0325 4.6567 5.15165C4.61086 5.26165 4.58335 5.38081 4.58335 5.5C4.58335 5.6192 4.61086 5.73835 4.6567 5.84835C4.70255 5.9675 4.7667 6.0592 4.8492 6.15085C5.02336 6.31585 5.26171 6.4167 5.50005 6.4167C5.55505 6.4167 5.61921 6.40755 5.6834 6.39835C5.7384 6.3892 5.7934 6.37085 5.8484 6.34335C5.9034 6.325 5.9584 6.2975 6.0134 6.26085C6.05925 6.2242 6.10506 6.1875 6.1509 6.15085C6.3159 5.9767 6.41675 5.73835 6.41675 5.5C6.41667 5.38085 6.38917 5.26165 6.34336 5.15165Z" fill="black" fill-opacity="0.28"/>
<path d="M16.5 4.58335H9.16665C8.66065 4.58335 8.25 4.994 8.25 5.5C8.25 6.006 8.66065 6.41665 9.16665 6.41665H16.5C17.006 6.41665 17.4167 6.006 17.4167 5.5C17.4167 4.994 17.006 4.58335 16.5 4.58335Z" fill="white"/>
<path d="M16.5 4.58335H9.16665C8.66065 4.58335 8.25 4.994 8.25 5.5C8.25 6.006 8.66065 6.41665 9.16665 6.41665H16.5C17.006 6.41665 17.4167 6.006 17.4167 5.5C17.4167 4.994 17.006 4.58335 16.5 4.58335Z" fill="black" fill-opacity="0.28"/>
<path d="M6.39836 10.8167C6.38921 10.7617 6.37086 10.7067 6.34336 10.6517C6.32501 10.5967 6.29751 10.5417 6.26086 10.4867C6.22421 10.4408 6.18751 10.395 6.15086 10.3492C6.05921 10.2667 5.95836 10.2025 5.84836 10.1567C5.62836 10.065 5.37171 10.065 5.1517 10.1567C5.0417 10.2025 4.94086 10.2667 4.8492 10.3492C4.81255 10.395 4.77586 10.4408 4.7392 10.4867C4.70255 10.5417 4.67505 10.5967 4.6567 10.6517C4.6292 10.7067 4.61086 10.7617 4.6017 10.8167C4.59255 10.8808 4.58335 10.945 4.58335 11C4.58335 11.2383 4.6842 11.4767 4.8492 11.6509C5.02336 11.8159 5.26171 11.9167 5.50005 11.9167C5.7384 11.9167 5.97671 11.8159 6.1509 11.6509C6.3159 11.4767 6.41675 11.2383 6.41675 11C6.41667 10.945 6.40751 10.8808 6.39836 10.8167Z" fill="white"/>
<path d="M6.39836 10.8167C6.38921 10.7617 6.37086 10.7067 6.34336 10.6517C6.32501 10.5967 6.29751 10.5417 6.26086 10.4867C6.22421 10.4408 6.18751 10.395 6.15086 10.3492C6.05921 10.2667 5.95836 10.2025 5.84836 10.1567C5.62836 10.065 5.37171 10.065 5.1517 10.1567C5.0417 10.2025 4.94086 10.2667 4.8492 10.3492C4.81255 10.395 4.77586 10.4408 4.7392 10.4867C4.70255 10.5417 4.67505 10.5967 4.6567 10.6517C4.6292 10.7067 4.61086 10.7617 4.6017 10.8167C4.59255 10.8808 4.58335 10.945 4.58335 11C4.58335 11.2383 4.6842 11.4767 4.8492 11.6509C5.02336 11.8159 5.26171 11.9167 5.50005 11.9167C5.7384 11.9167 5.97671 11.8159 6.1509 11.6509C6.3159 11.4767 6.41675 11.2383 6.41675 11C6.41667 10.945 6.40751 10.8808 6.39836 10.8167Z" fill="black" fill-opacity="0.28"/>
<path d="M16.5 10.0833H9.16665C8.66065 10.0833 8.25 10.494 8.25 11C8.25 11.506 8.66065 11.9167 9.16665 11.9167H16.5C17.006 11.9167 17.4167 11.506 17.4167 11C17.4167 10.494 17.006 10.0833 16.5 10.0833Z" fill="white"/>
<path d="M16.5 10.0833H9.16665C8.66065 10.0833 8.25 10.494 8.25 11C8.25 11.506 8.66065 11.9167 9.16665 11.9167H16.5C17.006 11.9167 17.4167 11.506 17.4167 11C17.4167 10.494 17.006 10.0833 16.5 10.0833Z" fill="black" fill-opacity="0.28"/>
<path d="M6.34336 16.1517C6.29751 16.0325 6.23336 15.9408 6.15086 15.8492C5.89421 15.6007 5.49086 15.5192 5.1517 15.6567C5.0417 15.7025 4.94086 15.7667 4.8492 15.8492C4.7667 15.9408 4.70255 16.0417 4.6567 16.1517C4.61086 16.2617 4.58335 16.3808 4.58335 16.5C4.58335 16.7475 4.67501 16.9767 4.8492 17.1509C5.02336 17.3241 5.25255 17.4167 5.50005 17.4167C5.74756 17.4167 5.97671 17.3241 6.1509 17.1509C6.32506 16.9767 6.41675 16.7475 6.41675 16.5C6.41667 16.3809 6.39836 16.2617 6.34336 16.1517Z" fill="white"/>
<path d="M6.34336 16.1517C6.29751 16.0325 6.23336 15.9408 6.15086 15.8492C5.89421 15.6007 5.49086 15.5192 5.1517 15.6567C5.0417 15.7025 4.94086 15.7667 4.8492 15.8492C4.7667 15.9408 4.70255 16.0417 4.6567 16.1517C4.61086 16.2617 4.58335 16.3808 4.58335 16.5C4.58335 16.7475 4.67501 16.9767 4.8492 17.1509C5.02336 17.3241 5.25255 17.4167 5.50005 17.4167C5.74756 17.4167 5.97671 17.3241 6.1509 17.1509C6.32506 16.9767 6.41675 16.7475 6.41675 16.5C6.41667 16.3809 6.39836 16.2617 6.34336 16.1517Z" fill="black" fill-opacity="0.28"/>
<path d="M16.5 15.5833H9.16665C8.66065 15.5833 8.25 15.9931 8.25 16.5C8.25 17.0069 8.66065 17.4167 9.16665 17.4167H16.5C17.006 17.4167 17.4167 17.0069 17.4167 16.5C17.4167 15.9931 17.006 15.5833 16.5 15.5833Z" fill="white"/>
<path d="M16.5 15.5833H9.16665C8.66065 15.5833 8.25 15.9931 8.25 16.5C8.25 17.0069 8.66065 17.4167 9.16665 17.4167H16.5C17.006 17.4167 17.4167 17.0069 17.4167 16.5C17.4167 15.9931 17.006 15.5833 16.5 15.5833Z" fill="black" fill-opacity="0.28"/>
</svg>
