<?xml version="1.0" encoding="UTF-8" standalone="no"?>
<!DOCTYPE svg PUBLIC "-//W3C//DTD SVG 1.1//EN" "http://www.w3.org/Graphics/SVG/1.1/DTD/svg11.dtd">
<svg viewBox="0 0 1600 1600" version="1.1" xmlns="http://www.w3.org/2000/svg" fill-rule="evenodd">
<defs>
<filter style="color-interpolation-filters:sRGB" id="sq" x="-0.1" y="-0.1" height="1.2" width="1.2">
<feFlood flood-color="red" result="result8"/>
<feFlood flood-color="#FF8000" in="SourceGraphic" result="result9"/>
<feFlood flood-color="#ff0" in="SourceGraphic" result="result11"/>
<feFlood flood-color="lime" in="SourceGraphic" result="result13"/>
<feFlood flood-color="cyan" in="SourceGraphic" result="result15"/>
<feFlood flood-color="#00F" in="SourceGraphic" result="result17"/>
<feFlood flood-color="#f0f" in="SourceGraphic" result="result19" />
<feMorphology in="SourceGraphic" radius="14.29" result="result10" />
<feMorphology in="SourceGraphic" radius="28.57" result="result12" />
<feMorphology in="SourceGraphic" radius="42.86" result="result14" />
<feMorphology in="SourceGraphic" radius="57.14" result="result16" />
<feMorphology in="SourceGraphic" radius="71.43" result="result18" />
<feMorphology in="SourceGraphic" radius="85.71" result="result1"/>
<feComposite operator="in" in="result8" in2="SourceGraphic" result="result20" />
<feComposite in2="result10" result="result2" operator="in" in="result9" />
<feComposite in2="result12" result="result3" in="result11" operator="in"/>
<feComposite in2="result14" result="result4" operator="in" in="result13"/>
<feComposite in2="result16" result="result5" in="result15" operator="in"/>
<feComposite in2="result18" result="result6" operator="in" in="result17"/>
<feComposite in2="result1" result="result7" operator="in" in="result19"/>
<feMerge id="feMerge76"><feMergeNode in="result20"/><feMergeNode in="result2"/><feMergeNode in="result3"/><feMergeNode in="result4"/><feMergeNode in="result5"/><feMergeNode in="result6"/><feMergeNode in="result7"/></feMerge></filter></defs>
		<path style="filter:url(#sq)" d="m 0,0 1600,0 0,1600 -1600,0 z m 1440,1494.939199999999 c -30.3216,0 -54.9392,-24.6176 -54.9392,-54.9392 0,-30.3216 24.6176,-54.939200000001 54.9392,-54.939200000001 30.3216,0 54.9392,24.617600000001 54.9392,54.939200000001 0,30.3216 -24.6176,54.9392 -54.9392,54.9392 z m -1334.9392,-54.9392 c 0,-30.3216 24.6176,-54.939200000001 54.9392,-54.939200000001 30.3215999999999,0 54.9392,24.617600000001 54.9392,54.939200000001 0,30.3216 -24.6176,54.9392 -54.9392,54.9392 -30.3216,0 -54.9391999999999,-24.6176 -54.9392,-54.9392 z m 693.0111999999993,53.976 c -12.5007999999997,0 -22.6496,-10.1488 -22.6496,-22.651200000001 0,-12.5008 10.1487999999996,-22.649599999999 22.6496,-22.649599999999 12.5008,0 22.6511999999992,10.148799999999 22.6511999999992,22.649599999999 0,12.502400000001 -10.1503999999992,22.651200000001 -22.6511999999992,22.651200000001 z m 178.8991999999996,-23.2992 c -12.0751999999993,3.2352 -24.5048535978709,-3.941000001551 -27.7407999999991,-16.016 -3.2360536102356,-12.075400047688 3.9407999999997,-24.5056 16.0159999999989,-27.7408 12.0752000000008,-3.2352 24.5056000000003,3.9408 27.7408000000011,16.016 3.2351999999996,12.0752 -3.9408000000009,24.5056 -16.0160000000009,27.7408 z m -357.7311999999994,-0.4992 c -12.0749999984497,-3.235946402129 -19.2535464021282,-15.665800001551 -16.0176,-27.7408 3.2360536102352,-12.075400047687 15.6671999999999,-19.2512 27.7424,-16.016 12.0752,3.2352 19.2511999999997,15.6656 16.0159999999997,27.740799999999 -3.2351999999997,12.075200000001 -15.6653999523124,19.252053610236 -27.7407999999997,16.016000000001 z m 524.5039999999994,-68.3072 c -10.826653648235,6.250546438606 -24.691453605155,2.536146417695 -30.9424,-8.2912 -6.249853608583,-10.825453588246 -2.534253588246,-24.690946391417 8.2912,-30.9408 10.827346417695,-6.250946394846 24.690946391416,-2.535853588246 30.9408,8.289600000001 6.250946394845,10.827346417694 2.536546434498,24.692146390841 -8.2896,30.942399999999 z m -691.0847999999996,-0.964799999999 c -10.8254535882457,-6.249853608585 -14.5417464386057,-20.114146351766 -8.2911999999995,-30.940800000001 6.250253609158,-10.826146434498 20.1157463517649,-14.541746438606 30.9423999999995,-8.2912 10.8261464344986,6.250253609158 14.5405463948457,20.115053582305 8.2896,30.9424 -6.2498536085841,10.825453588246 -20.1134535823054,14.540546394846 -30.9408,8.289600000001 z m 345.4127999999994,-65.985600000001 c -40.1791999999997,0 -72.7999999999995,-32.6208 -72.7999999999995,-72.8 0,-40.1792 32.6207999999998,-72.8 72.7999999999995,-72.8 40.1792000000005,0 72.8000000000003,32.6208 72.8000000000003,72.8 0,40.1792 -32.6207999999998,72.8 -72.8000000000003,72.8 z m 488.9536000000012,-42.6768 c -8.83959997285,8.840400009049 -23.1936,8.84 -32.0336,0 -8.84,-8.84 -8.84,-23.192 0,-32.032 8.84,-8.84 23.194000027149,-8.84040000905 32.0336,0 8.838800045252,8.839600009053 8.838800045252,23.192399990947 0,32.032 z m -977.3407999999999,-1.3632 c -8.8395999728494,-8.840400009049 -8.8395999728494,-23.19159999095 0,-32.032 8.8388000452518,-8.839600009053 23.192,-8.84 32.0319999999997,0 8.8399999999999,8.84 8.8399999999999,23.192 0,32.032 -8.8399999999998,8.84 -23.193199954748,8.839600009054 -32.0319999999997,0 z m 650.3151999999994,-50.879999999999 c -22.0768000000005,0 -40,-17.923200000001 -40,-40 0,-22.076800000001 17.9231999999995,-40 40,-40 22.0767999999997,0 40.0000000000006,17.923199999999 40.0000000000006,40 0,22.076799999999 -17.9232000000009,40 -40.0000000000006,40 z m -357.9903999999998,-15.736000000001 c -15.6100000256239,-15.610800005126 -15.6096,-40.9584 0,-56.568 15.6111999999997,-15.6112 40.9584000000001,-15.6112 56.5695999999998,0 15.6096,15.6096 15.6100000256238,40.957199994874 0,56.568 -15.6107999846258,15.611600005124 -40.9588000153733,15.611600005124 -56.5695999999998,0 z m 574.5903999999993,-45.3376 c -28.4112,28.4112 -74.544,28.4112 -102.9552,0 -28.4112,-28.4112 -28.4112,-74.5424 0,-102.9536 28.4112,-28.4112 74.544,-28.4112 102.9552,0 28.4112,28.4112 28.4112,74.5424 0,102.9536 z m -756.4911999999994,-1.363199999999 c -28.4112,-28.4112 -28.4112,-74.5424 0,-102.953600000001 28.4112000000002,-28.4112 74.5440000000002,-28.4112 102.9552000000003,0 28.4111999999999,28.411200000001 28.4111999999999,74.542400000001 0,102.953600000001 -28.4111999999997,28.411199999999 -74.5440000000003,28.411199999999 -102.9552000000003,0 z m 976.9424000000014,-28.294400000001 c -6.250253609158,10.826146434499 -20.115053582306,14.540546394847 -30.942400000002,8.289600000001 -10.825453588246,-6.249853608584 -14.540546394847,-20.113453582306 -8.2896,-30.9408 6.249853608584,-10.825453588247 20.115346411753,-14.541053608585 30.9408,-8.291200000001 10.827346417694,6.250946394846 14.541746438606,20.115746351766 8.291200000002,30.9424 z m -1196.9936000000004,-1.6704 c -6.2508535771059,-10.825800033142 -2.5357999779429,-24.689253570706 8.2912,-30.9408 10.8258000331418,-6.250853577105 24.6892535707054,-2.535799977943 30.9407999999999,8.2912 6.250853577106,10.825800033143 2.5357999779428,24.689253570706 -8.2911999999999,30.9408 -10.8258000331423,6.250853577106 -24.6892535707053,2.535799977944 -30.9408,-8.2912 z m 1024.2063999999975,-149.6079999999996 c -15.610800005125,15.6100000256237 -40.958399999999,15.6096000000007 -56.567999999999,0 -15.6112,-15.6111999999999 -15.6112,-40.9584000000002 0,-56.5695999999997 15.6096,-15.6096 40.957199994874,-15.6100000256226 56.567999999999,0 15.611600005125,15.6107999846261 15.611600005125,40.9588000153731 0,56.5695999999997 z m -864.2639999999978,-37.9903999999998 c 0,-22.0768000000004 17.9232000000002,-40 40,-40 22.0768000000003,0 40,17.9231999999996 40,40 0,22.0767999999999 -17.9232000000001,40.0000000000005 -40,40.0000000000005 -22.0767999999998,0 -40,-17.9232000000005 -40,-40.0000000000005 z m 1106.3231999999998,22.6879999999995 c -3.235200000001,12.0751999999997 -15.665399952313,19.252053610236 -27.740799999999,16.0160000000003 -12.07499999845,-3.2359464021285 -19.253546402129,-15.6658000015512 -16.017600000001,-27.7408000000001 3.236053610234,-12.075400047687 15.6672,-19.2511999999999 27.742400000001,-16.0160000000005 12.075199999999,3.2352000000005 19.2512,15.6656000000008 16.015999999999,27.7408000000004 z m -1335.0720000000001,-1.8623999999999 c -3.2360536102355,-12.0754000476871 3.9408,-24.5056000000002 16.016,-27.7407999999998 12.0752,-3.2352000000006 24.5056000000001,3.9408000000003 27.7408000000001,16.0159999999996 3.2352,12.0752000000007 -3.9405999523128,24.506346389765 -16.0160000000001,27.7424000000004 -12.0749999984493,3.2359464021285 -24.5048535978715,-3.9426000015513 -27.7408,-16.0176000000001 z m 668.7487999999996,-340.8255999999999 c 88.3071999999995,0 160,71.6927999999995 160,160 0,88.3071999999994 -71.6928000000005,159.9999999999997 -160,159.9999999999997 -88.3072000000004,0 -160,-71.6927999999995 -160,-159.9999999999996 0,-88.3072000000001 71.6927999999997,-160 160,-160 z m 533.9551999999994,160.9632 c 0,40.1808 -32.619199999999,72.7999999999995 -72.8,72.7999999999995 -40.1792,0 -72.800000000001,-32.6191999999994 -72.800000000001,-72.7999999999995 0,-40.1792 32.620800000001,-72.8000000000002 72.800000000001,-72.8000000000002 40.180800000001,0 72.8,32.6208000000001 72.8,72.8000000000002 z m -1069.8383999999991,-1.9263999999999 c 0,-40.1808000000001 32.6208,-72.8000000000005 72.8000000000002,-72.8000000000005 40.1791999999999,0 72.8,32.6192000000004 72.8,72.8000000000005 0,40.1791999999992 -32.6208,72.7999999999998 -72.8,72.7999999999998 -40.1792,0 -72.8000000000001,-32.6208000000007 -72.8000000000002,-72.7999999999998 z m 1226.0031999999991,4.8191999999999 c 0,12.5008 -10.1488,22.6495999999996 -22.6496,22.6495999999996 -12.502399999999,0 -22.6512,-10.1487999999997 -22.6512,-22.6496000000002 0,-12.5024 10.148800000001,-22.6511999999996 22.6512,-22.6511999999996 12.500799999998,0 22.6496,10.1488000000002 22.6496,22.6512000000001 z m -1382.1679999999992,-1.928 c 0,-12.5008000000003 10.1488,-22.6512000000005 22.6511999999999,-22.6512000000005 12.5008,0 22.6496,10.1504000000001 22.6496,22.6512000000006 0,12.5007999999999 -10.1488,22.6495999999995 -22.6496,22.6495999999995 -12.5023999999999,0 -22.6512,-10.1487999999997 -22.6511999999999,-22.6495999999995 z m 1132.0479999999993,-161.928 c 0,22.0767999999999 -17.9232,40 -40,40 -22.0768,0 -40,-17.9232000000001 -40,-39.9999999999999 0,-22.0768 17.9232,-40 40,-40 22.0768,0 40,17.9232 40,40 z m -864.2639999999983,-37.9903999999999 c 15.6108000051255,-15.6100000256234 40.9583999999998,-15.6095999999999 56.5679999999999,0 15.6111999999998,15.6111999999997 15.6111999999998,40.9583999999999 0,56.5696 -15.6096,15.6095999999993 -40.9571999948745,15.6100000256231 -56.5679999999999,0 -15.6116000051244,-15.6107999846262 -15.6116000051244,-40.9588000153741 0,-56.5696 z m 1091.0863999999983,22.9471999999998 c 3.235946402129,12.0749999984496 -3.9424,24.5055999999996 -16.0176,27.7407999999998 -12.0752,3.2352000000002 -24.5056,-3.9407999999999 -27.7408,-16.0160000000002 -3.2352,-12.0752000000001 3.9408,-24.5055999999996 16.015999999999,-27.7407999999996 12.075200000001,-3.2351999999998 24.506346389766,3.9405999523128 27.742400000001,16.0160000000001 z m -1335.0735999999992,-1.8624 c 3.2360536102353,-12.075400047687 15.6671999999998,-19.2511999999999 27.7423999999998,-16.0159999999998 12.0752000000002,3.2351999999996 19.2512000000001,15.6655999999994 16.0159999999999,27.7408 -3.2351999999997,12.0752000000001 -15.6653999523128,19.2520536102352 -27.7407999999998,16.0159999999995 -12.0749999984492,-3.2359464021284 -19.2535464021286,-15.6658000015501 -16.0175999999999,-27.7407999999997 z m 1046.2143999999991,-200.6576000000005 c 28.4112,28.4112000000003 28.4112,74.5424000000003 0,102.9536000000004 -28.4112,28.4111999999998 -74.544,28.4111999999998 -102.9552,0 -28.4112,-28.4112000000001 -28.4112,-74.5424000000001 0,-102.9536000000004 28.4112,-28.4111999999995 74.544,-28.4111999999995 102.9552,0 z m -756.4911999999983,-1.3631999999992 c 28.4112000000001,-28.4112000000001 74.5440000000002,-28.4112000000001 102.955199999999,0 28.4112,28.4112 28.4112,74.5423999999995 0,102.9535999999994 -28.4111999999993,28.4112000000003 -74.5439999999999,28.4112000000003 -102.955199999999,0 -28.4112,-28.4111999999999 -28.4112,-74.5423999999994 -1e-13,-102.9535999999994 z m 976.5423999999993,37.1103999999998 c 6.250946394845,10.8273464176945 2.535453648234,24.690253561394 -8.2912,30.9408 -10.826146434498,6.2502536091579 -24.690546390842,2.5365464344987 -30.9408,-8.2896000000003 -6.250546438607,-10.8266536482345 -2.536146417695,-24.6914536051543 8.291199999999,-30.9423999999998 10.825453588247,-6.2498536085841 24.690946391416,-2.5342535882462 30.940800000001,8.2912000000002 z m -1196.9935999999988,-1.6688 c 6.2509463948457,-10.8273464176945 20.1154000220573,-14.5427464292948 30.9423999999999,-8.2912000000001 10.8258000331422,6.2508535771057 14.5398536091581,20.1146535655013 8.2896000000001,30.9408 -6.250546438606,10.8266536482346 -20.1138000220573,14.5427464292947 -30.9408,8.2911999999999 -10.8258000331424,-6.2508535771057 -14.5410536085841,-20.1153464117537 -8.2912,-30.9407999999998 z m 796.9695999999983,-80.7792 c 15.6100000256246,15.6108000051259 15.6096000000016,40.9584 0,56.568 -15.6111999999997,15.6111999999998 -40.9583999999996,15.6111999999998 -56.5695999999998,0 -15.6095999999992,-15.6096 -15.610000025623,-40.9571999948744 0,-56.568 15.6107999846262,-15.6116000051247 40.9588000153739,-15.6116000051242 56.5695999999998,0 z m -357.9903999999999,-15.7360000000001 c 22.0768000000003,0 40,17.9232000000002 40,40 0,22.0768 -17.9231999999997,39.9999999999998 -39.9999999999995,39.9999999999998 -22.0768000000003,0 -40,-17.9231999999998 -40,-39.9999999999998 0,-22.0767999999998 17.9231999999997,-40 39.9999999999995,-40 z m 159.9999999999999,-94.9199999999999 c 40.1792,0 72.8000000000003,32.6207999999997 72.8000000000003,72.8 0,40.1791999999998 -32.6208000000003,72.8 -72.8000000000003,72.8 -40.1791999999998,0 -72.8000000000001,-32.6208000000002 -72.8000000000001,-72.8 0,-40.1792000000003 32.6208000000003,-72.8 72.8000000000001,-72.8 z m 488.3888000000017,49.8223999999998 c 8.838800045251,8.8396000090529 8.839200036201,23.1943999637986 0,32.0336000000004 -8.839200036203,8.8392000362029 -23.193999990947,8.8388000452516 -32.033600000002,0 -8.840400009049,-8.8395999728491 -8.839999999999,-23.1936000000005 0,-32.0336000000004 8.840000000002,-8.84 23.194000027152,-8.8404000090497 32.033600000002,0 z m -977.3408000000002,-1.3631999999998 c 8.8388000452518,-8.8396000090534 23.1919999999999,-8.8400000000002 32.0319999999996,0 8.84,8.84 8.84,23.1935999999998 0,32.0336 -8.8399999999999,8.8399999999999 -23.1931999547484,8.8396000090533 -32.032,0 -8.8395999728493,-8.8404000090494 -8.8395999728491,-23.1931999909508 4e-13,-32.0336 z m 834.3647999999992,-108.6624000000002 c 10.826999977943,6.2515464292944 14.541053608584,20.1153464117542 8.291199999999,30.9408000000003 -6.250946394845,10.8273464176943 -20.114999966857,14.5420535771057 -30.9408,8.2911999999997 -10.826999977942,-6.2515464292946 -14.541453609157,-20.1146535655016 -8.291199999999,-30.9407999999999 6.250546438607,-10.8266536482342 20.114999966858,-14.5420535771061 30.9408,-8.2912000000001 z m -691.084799999999,-0.9631999999999 c 10.8273464176947,-6.250946394846 24.6921463908417,-2.5365464344987 30.9424,8.2896000000002 6.250546438606,10.8266536482345 2.5361464176945,24.6914536051545 -8.2911999999997,30.9424 -10.8254535882465,6.249853608584 -24.6909463914173,2.5342535882463 -30.9408000000006,-8.2911999999993 -6.2509463948457,-10.8273464176948 -2.5358535882455,-24.6909463914172 8.2896000000004,-30.9408000000009 z m -294.328,-98.8528000000002 c 30.3216,0 54.9392000000002,24.6176000000002 54.9392000000002,54.9392000000001 0,30.3216000000002 -24.6176,54.9391999999999 -54.9392,54.9391999999999 -30.3216000000001,0 -54.9392000000002,-24.6176 -54.9392000000002,-54.9392 0,-30.3216000000007 24.6176000000001,-54.9392000000001 54.9392,-54.9392000000001 z m 1334.9391999999991,54.9392000000001 c 0,30.3216000000002 -24.617599999999,54.9391999999999 -54.9392,54.9391999999999 -30.3216,0 -54.939200000001,-24.6176 -54.939200000001,-54.9392 0,-30.3216000000007 24.6176,-54.9392000000001 54.939200000001,-54.9392000000001 30.321599999999,0 54.9392,24.6176000000002 54.9392,54.9392000000001 z m -516.1056000000003,-24.3951999999999 c 12.0752000000007,3.2352000000001 19.2512000000006,15.6656 16.0160000000008,27.7408 -3.2351999999993,12.0752000000006 -15.6658000015508,19.2535464021289 -27.7408000000001,16.0176 -12.0754000476871,-3.2360536102358 -19.2535464021284,-15.6674000015506 -16.0176000000001,-27.7424000000001 3.2360536102356,-12.075400047687 15.6672000000001,-19.2512000000001 27.7423999999995,-16.016 z m -357.7327999999991,-0.4991999999998 c 12.0752,-3.2352 24.5063463897645,3.9405999523129 27.7423999999999,16.0159999999999 3.2359464021288,12.07499999845 -3.9421999523123,24.5063463897646 -16.0175999999999,27.7424000000001 -12.0749999984495,3.2359464021283 -24.5056,-3.9424000000002 -27.7408000000003,-16.0176000000002 -3.2351999999997,-12.0752000000002 3.9408000000003,-24.5055999999999 16.0160000000003,-27.7407999999998 z m 178.8992000000001,-23.2976000000002 c 12.5007999999998,0 22.6511999999992,10.1487999999994 22.6511999999992,22.6496 0,12.5008000000001 -10.1503999999994,22.6512000000001 -22.6511999999992,22.6512000000001 -12.5008000000004,0 -22.6512000000004,-10.1504 -22.6512000000004,-22.6512000000001 0,-12.5008000000007 10.1504,-22.6496 22.6512000000004,-22.6496 z"/>
</svg>
