<svg width="20" height="20" viewBox="0 0 20 20" fill="none" xmlns="http://www.w3.org/2000/svg">
<path d="M9.99979 5.82456C7.70389 5.82456 5.83604 7.69241 5.83604 9.9883C5.83604 12.2842 7.70389 14.152 9.99979 14.152C12.2955 14.152 14.1635 12.2842 14.1635 9.9883C14.1635 7.69237 12.2955 5.82456 9.99979 5.82456ZM9.99979 12.7485C8.47768 12.7485 7.23956 11.5104 7.23956 9.9883C7.23956 8.46619 8.47768 7.22807 9.99979 7.22807C11.5219 7.22807 12.76 8.46619 12.76 9.9883C12.76 11.5104 11.5219 12.7485 9.99979 12.7485Z" fill="#5CBBFF"/>
<path d="M18.5296 7.02621L17.531 6.85988L18.0994 6.05121C18.6159 5.3623 18.538 4.37332 17.9348 3.80816L16.157 2.03039C15.5495 1.42289 14.5797 1.35695 13.9151 1.865L13.1235 2.43973L12.9642 1.49562C12.8458 0.629023 12.1303 0 11.2629 0H8.73659C7.88655 0 7.15554 0.631094 7.03858 1.45191L6.87108 2.4573L6.06241 1.8891C5.37327 1.37215 4.38405 1.45004 3.81937 2.05355L2.04163 3.83133C1.43437 4.43836 1.36772 5.40816 1.87366 6.06945L2.45917 6.88676L1.50737 7.04746C0.640459 7.16559 0.0114746 7.8809 0.0114746 8.74852V11.2748C0.0114746 12.1389 0.628779 12.854 1.46315 12.9726L2.46854 13.1404L1.90034 13.949C1.38362 14.6379 1.46151 15.6269 2.06479 16.1918L3.8428 17.9698C4.16187 18.2891 4.61847 18.4796 5.06409 18.4796C5.43159 18.4796 5.78737 18.3582 6.08093 18.1378L6.89823 17.5523L7.05894 18.5041C7.17683 19.371 7.89237 20 8.75999 20H11.2863C12.1502 20 12.8655 19.3825 12.9839 18.5486L13.1516 17.5429L13.9528 18.1057C14.2634 18.3385 14.6176 18.4566 15.0051 18.4566C15.4641 18.4566 15.898 18.2753 16.2267 17.9466L18.0044 16.1689C18.6119 15.5618 18.6783 14.592 18.1654 13.9207L17.5626 13.1097L18.4924 12.953C19.3593 12.8346 19.9883 12.1191 19.9883 11.2517V8.72539C19.9883 7.87859 19.3621 7.14973 18.5296 7.02621ZM18.5846 11.251C18.5846 11.4141 18.4709 11.5387 18.2805 11.5652L16.1988 11.916C15.9581 11.9565 15.7558 12.1195 15.6646 12.3462C15.5733 12.5729 15.6068 12.8304 15.7523 13.0267L17.0444 14.7652C17.1319 14.8793 17.1167 15.0716 17.0122 15.1761L15.2344 16.9539C15.167 17.0213 15.0943 17.0526 15.0054 17.0526C14.9235 17.0526 14.8606 17.0318 14.7773 16.9698L13.0463 15.7534C12.8489 15.6143 12.5939 15.5876 12.3717 15.6802C12.1495 15.7733 11.9902 15.9743 11.9507 16.2121L11.5972 18.3336C11.5755 18.4858 11.4447 18.5965 11.2861 18.5965H8.7598C8.59722 18.5965 8.47229 18.483 8.44612 18.2926L8.09526 16.2107C8.05503 15.9721 7.89456 15.7712 7.67069 15.6788C7.5846 15.643 7.49362 15.6257 7.40331 15.6257C7.25897 15.6257 7.11558 15.6702 6.99464 15.7567L5.25101 17.0058C5.18901 17.0524 5.12608 17.076 5.06409 17.076C4.99206 17.076 4.88937 17.032 4.83507 16.9775L3.04093 15.1839C2.9387 15.0882 2.93144 14.9109 3.0248 14.789C3.03065 14.7815 3.03624 14.7738 3.04163 14.7661L4.258 13.0351C4.39671 12.8377 4.42433 12.583 4.3312 12.3605C4.23812 12.1383 4.03718 11.979 3.79929 11.9395L1.67788 11.586C1.52562 11.5643 1.41495 11.4335 1.41495 11.2749V8.74859C1.41495 8.58578 1.52815 8.46109 1.71858 8.43469L3.80046 8.08383C4.03929 8.04359 4.24022 7.88312 4.33261 7.65926C4.42499 7.43539 4.39554 7.17973 4.25448 6.98301L3.00163 5.23438C2.91437 5.12 2.92937 4.92793 3.0339 4.8234L4.82733 3.02949C4.92323 2.92703 5.1003 2.92023 5.22241 3.01359C5.22991 3.01922 5.23737 3.0248 5.24511 3.0302L6.97608 4.24656C7.17327 4.38527 7.428 4.41313 7.65069 4.31977C7.87315 4.22668 8.03222 4.02574 8.07175 3.78785L8.42519 1.66645C8.44694 1.51418 8.57769 1.40352 8.73628 1.40352H11.2626C11.4257 1.40352 11.5503 1.51695 11.577 1.70762L11.9278 3.78949C11.9681 4.02902 12.1295 4.23066 12.3543 4.32258C12.5789 4.41426 12.8352 4.3834 13.0319 4.2407L14.7533 2.99039C14.8673 2.90313 15.0596 2.91789 15.1643 3.02266L16.9582 4.81609C17.0602 4.91176 17.0675 5.0893 16.9741 5.21117C16.9687 5.21867 16.9629 5.22613 16.9578 5.23387L15.7414 6.96484C15.6027 7.16227 15.5753 7.41699 15.6682 7.63945C15.7613 7.86191 15.9622 8.02098 16.2001 8.06051L18.3054 8.41137C18.3108 8.4123 18.3161 8.41324 18.3215 8.41395C18.4738 8.4357 18.5844 8.56645 18.5844 8.72504L18.5846 11.251Z" fill="#5CBBFF"/>
</svg>
