<svg width="12" height="12" viewBox="0 0 12 12" fill="none" xmlns="http://www.w3.org/2000/svg">
<path d="M11.175 8.85984L11.1954 8.87277L11.2166 8.88426C11.2551 8.9051 11.2874 8.94459 11.3006 8.9993C11.3134 9.05269 11.3037 9.10322 11.2753 9.14401L11.2673 9.15558L11.2597 9.16747L10.3446 10.6029L10.2956 10.6519L10.2097 10.7379C10.0413 10.8799 9.72994 11 9.24372 11C7.91076 11 5.82647 10.0519 3.78352 8.10011L3.78353 8.1001L3.77993 8.09671C2.38081 6.77883 1.44004 5.41434 0.995192 4.26198C0.560247 3.13527 0.655977 2.39729 0.964804 2.00251C0.976315 1.99534 0.987306 1.98847 0.997905 1.98185L0.999097 1.9811C1.03247 1.96025 1.06199 1.94181 1.09684 1.92075L2.751 1.02861L2.76305 1.02212L2.77483 1.01515C2.80465 0.997535 2.85142 0.985585 2.91926 1.00254C2.98675 1.01942 3.05782 1.06214 3.11094 1.12755L4.24342 2.76129L4.25711 2.78104L4.27211 2.79979C4.28105 2.81096 4.2975 2.85182 4.28665 2.89885L4.28081 2.92415L4.27686 2.94982C4.2746 2.96452 4.26058 3.0131 4.18296 3.07513L3.55857 3.44976L2.92569 3.82949L3.33837 4.44141C3.91627 5.2983 5.39118 7.18606 7.75857 8.6065L8.33508 8.95241L8.70395 8.39032L9.07961 7.81788C9.15055 7.73742 9.292 7.68857 9.45607 7.76935L11.175 8.85984Z" stroke="#5CBBFF" stroke-width="1.4"/>
</svg>
