<svg width="20" height="18" viewBox="0 0 20 18" fill="none" xmlns="http://www.w3.org/2000/svg">
<path d="M15.2603 0.906258C15.604 0.562508 16.104 0.562508 16.4165 0.906258L19.7603 4.00001C20.104 4.34376 20.104 4.84376 19.854 5.15626C19.5103 5.50001 19.0103 5.50001 18.6978 5.25001L16.6978 3.40626V14.6563L18.4478 12.9063C18.7915 12.5625 19.2915 12.5625 19.604 12.9063C19.9165 13.25 19.9478 13.75 19.604 14.0625L16.5103 17.1563C16.354 17.25 16.1665 17.3125 15.9165 17.3125C15.6665 17.3125 15.5103 17.2188 15.3228 17.0625L12.229 13.9688C11.8853 13.625 11.8853 13.125 12.229 12.8125C12.5728 12.4688 13.0728 12.4688 13.3853 12.8125L15.0103 14.4063V3.40626L13.104 5.15626C12.9478 5.31251 12.7603 5.40626 12.5103 5.40626C12.2603 5.40626 12.104 5.31251 11.9165 5.15626C11.5728 4.81251 11.6665 4.31251 12.0103 4.00001L15.2603 0.906258Z" fill="#5CBBFF"/>
<path d="M9.1665 2.34376H0.822753C0.322753 2.34376 -0.0209961 2.00001 -0.0209961 1.50001C-0.0209961 1.00001 0.322753 0.656263 0.822753 0.656263H9.1665C9.6665 0.656263 10.0103 1.00001 10.0103 1.50001C10.0103 2.00001 9.6665 2.34376 9.1665 2.34376Z" fill="#5CBBFF"/>
<path d="M0.854003 5.65626H9.1665C9.6665 5.65626 10.0103 6.00001 10.0103 6.50001C10.0103 7.00001 9.6665 7.34376 9.1665 7.34376H0.822753C0.322753 7.34376 -0.0209961 7.00001 -0.0209961 6.50001C-0.0209961 6.00001 0.354004 5.65626 0.854003 5.65626Z" fill="#5CBBFF"/>
<path d="M0.854003 10.6563H9.1665C9.6665 10.6563 10.0103 11 10.0103 11.5C10.0103 12 9.6665 12.3438 9.1665 12.3438H0.822753C0.322753 12.3438 -0.0209961 12 -0.0209961 11.5C-0.0209961 11 0.354004 10.6563 0.854003 10.6563Z" fill="#5CBBFF"/>
<path d="M0.854003 15.6563H9.1665C9.6665 15.6563 10.0103 16 10.0103 16.5C10.0103 17 9.6665 17.3438 9.1665 17.3438H0.822753C0.322753 17.3438 -0.0209961 17 -0.0209961 16.5C-0.0209961 16 0.354004 15.6563 0.854003 15.6563Z" fill="#5CBBFF"/>
</svg>
