<svg width="18" height="20" viewBox="0 0 18 20" fill="none" xmlns="http://www.w3.org/2000/svg">
<path d="M16.6562 6.09375L10.25 0.5C9.5 -0.15625 8.40625 -0.15625 7.75 0.5L1.34375 6.09375C0.9375 6.5 0.6875 7 0.6875 7.59375V18.0938C0.6875 19.1875 1.53125 20 2.59375 20H5.4375C6.53125 20 7.34375 19.1563 7.34375 18.0938V14.4062C7.34375 14.25 7.4375 14.1563 7.59375 14.1563H10.4375C10.5938 14.1563 10.6875 14.25 10.6875 14.4062V18.0625C10.6875 19.1563 11.5312 19.9688 12.5938 19.9688H15.4375C16.5312 19.9688 17.3438 19.125 17.3438 18.0625V7.59375C17.3438 7 17.0938 6.5 16.6562 6.09375ZM15.6562 18.0938C15.6562 18.25 15.5625 18.3438 15.4062 18.3438H12.5625C12.4062 18.3438 12.3125 18.25 12.3125 18.0938V14.4062C12.3125 13.3125 11.4688 12.5 10.4062 12.5H7.5625C6.46875 12.5 5.65625 13.3438 5.65625 14.4062V18.0625C5.65625 18.2188 5.5625 18.3125 5.40625 18.3125H2.5625C2.40625 18.3125 2.3125 18.2188 2.3125 18.0625V7.59375C2.3125 7.5 2.3125 7.4375 2.40625 7.4375L8.84375 1.84375C8.9375 1.75 9.09375 1.75 9.1875 1.84375L15.5625 7.4375C15.6562 7.4375 15.6562 7.53125 15.6562 7.59375V18.0938Z" fill="#5CBBFF"/>
</svg>
