<svg width="20" height="20" viewBox="0 0 20 20" fill="none" xmlns="http://www.w3.org/2000/svg">
<path d="M16.2705 20.0781H3.73145C2.21582 20.0781 0.981445 18.918 0.981445 17.4922V2.58594C0.981445 1.16016 2.21582 0 3.73145 0H16.2666C17.7822 0 19.0166 1.16016 19.0166 2.58594V17.4883C19.0205 18.918 17.7861 20.0781 16.2705 20.0781ZM3.73145 1.71875C3.16504 1.71875 2.7002 2.10938 2.7002 2.58594V17.4883C2.7002 17.9688 3.16504 18.3594 3.73145 18.3594H16.2666C16.8369 18.3594 17.2979 17.9688 17.2979 17.4922V2.58594C17.3018 2.10938 16.8369 1.71875 16.2705 1.71875H3.73145ZM13.5947 12.2227H6.40723C5.27441 12.2227 4.34863 11.3398 4.34863 10.2578V5.33203C4.34863 4.25 5.27051 3.36719 6.40723 3.36719H13.5947C14.7275 3.36719 15.6533 4.25 15.6533 5.33203V10.2617C15.6533 11.3438 14.7314 12.2227 13.5947 12.2227ZM6.40723 5.08594C6.20801 5.08594 6.06738 5.21484 6.06738 5.33203V10.2617C6.06738 10.3789 6.20801 10.5078 6.40723 10.5078H13.5947C13.7939 10.5078 13.9346 10.3789 13.9346 10.2617V5.33203C13.9346 5.21484 13.7939 5.08594 13.5947 5.08594H6.40723ZM12.8994 15.3438C12.8994 14.8672 12.5166 14.4844 12.04 14.4844H7.96191C7.48535 14.4844 7.10254 14.8672 7.10254 15.3438C7.10254 15.8203 7.48535 16.2031 7.96191 16.2031H12.04C12.5166 16.2031 12.8994 15.8164 12.8994 15.3438Z" fill="#5CBBFF"/>
</svg>
