<svg width="20" height="20" viewBox="0 0 20 20" fill="none" xmlns="http://www.w3.org/2000/svg">
<path d="M18.2043 0.441162H1.79566C0.815 0.445029 0.0170312 1.23296 0 2.21362V13.5991C0.00386719 14.589 0.805742 15.3909 1.79566 15.3948H6.6641V17.8948H5V19.5589H15V17.918H13.3359V15.418H18.2043C19.2005 15.4141 20.0046 14.603 20 13.6068C20 13.6045 20 13.6014 20 13.5991V2.21362C19.983 1.23296 19.185 0.445029 18.2043 0.441162ZM11.6641 17.918H8.33594V15.418H11.6641V17.918ZM18.3359 13.5991C18.3359 13.6719 18.2771 13.7307 18.2043 13.7307H1.79566C1.7291 13.7229 1.67879 13.6664 1.67957 13.5991V2.21362C1.67957 2.14089 1.7384 2.08206 1.81113 2.08206H18.2198C18.2926 2.08206 18.3514 2.14089 18.3514 2.21362L18.3359 13.5991Z" fill="#5CBBFF"/>
</svg>
