<svg width="20" height="20" viewBox="0 0 20 20" fill="none" xmlns="http://www.w3.org/2000/svg">
<path d="M3.84375 11.625H1.21875C0.5625 11.625 0.0625 12.2188 0.0625 12.875V18.6875C0.0625 19.3438 0.5625 19.9375 1.21875 19.9375H3.875C4.53125 19.9375 5.03125 19.3438 5.03125 18.6875V12.875C5.03125 12.1875 4.53125 11.625 3.84375 11.625ZM3.375 18.25H1.6875V13.2813H3.34375L3.375 18.25Z" fill="#5CBBFF"/>
<path d="M11.3125 9.96875H8.65626C8.00001 9.96875 7.50001 10.5625 7.50001 11.2188V18.75C7.50001 19.4062 8.00001 20 8.65626 20H11.3125C11.9688 20 12.4688 19.4062 12.4688 18.75V11.2188C12.5 10.5313 12 9.96875 11.3125 9.96875ZM10.8438 18.25H9.18751V11.625H10.8438V18.25Z" fill="#5CBBFF"/>
<path d="M18.7812 12.4375H16.125C15.4687 12.4375 14.9687 13.0313 14.9687 13.6875V18.6563C14.9687 19.3125 15.4687 19.9063 16.125 19.9063H18.7812C19.4375 19.9063 19.9375 19.3125 19.9375 18.6563V13.6875C19.9687 13.0313 19.4687 12.4375 18.7812 12.4375ZM18.3125 18.25H16.6562V14.0938H18.3125V18.25Z" fill="#5CBBFF"/>
<path d="M10 6.625C9.59376 6.625 9.25001 6.46875 9.00001 6.21875C8.75001 5.875 8.15626 5.8125 7.84376 6.0625C7.50001 6.3125 7.43751 6.90625 7.68751 7.21875C8.03126 7.71875 8.59376 8.0625 9.18751 8.21875V8.3125C9.18751 8.75 9.53126 9.15625 10 9.15625C10.5313 9.1875 10.875 8.8125 10.875 8.3125V8.125C11.4688 7.875 11.9688 7.46875 12.1875 6.96875C12.5313 6.125 12.2813 5.15625 11.4375 4.46875C11.0938 4.21875 10.1875 3.65625 10.0313 3.5625C9.96875 3.5 9.90626 3.46875 9.84376 3.4375C9.56251 3.1875 9.53126 2.6875 9.84376 2.53125C10.1875 2.375 10.875 2.71875 11.0625 2.96875C11.2188 3.21875 11.8125 3.46875 12.2188 3.21875C12.6563 3 12.75 2.5 12.5 2.0625C12.1563 1.5625 11.5625 1.15625 11 1V0.843753C11 0.406253 10.6563 3.419e-06 10.1875 3.419e-06C9.65625 -0.0312466 9.31251 0.343753 9.31251 0.843753V1C8.81251 1.15625 8.40626 1.5 8.15626 1.84375C7.81251 2.25 7.75001 2.84375 7.81251 3.34375C7.96876 3.9375 8.40626 4.5 9.12501 5C9.28126 5.09375 10.2188 5.6875 10.4688 5.84375C11.125 6.34375 10.25 6.625 10 6.625Z" fill="#5CBBFF"/>
</svg>
